<svg width="99" height="99" viewBox="0 0 99 99" fill="none" xmlns="http://www.w3.org/2000/svg">
<path fill-rule="evenodd" clip-rule="evenodd" d="M98.3999 49.2C98.3999 76.4 76.2999 98.4 49.2 98.4C22 98.4 0 76.4 0 49.2C0 22.1 22 0 49.2 0C76.2999 0 98.3999 22.1 98.3999 49.2ZM78 84.9C77.5 74.2 68.6999 65.6 57.8999 65.6H40.3999C29.5999 65.6 20.8 74.2 20.3 84.9C28.2 91.3 38.2 95.1 49.2 95.1C60.1 95.1 70.2 91.3 78 84.9ZM95.1001 49.2C95.1001 23.9 74.5 3.29999 49.2 3.29999C23.9 3.29999 3.30005 23.9 3.30005 49.2C3.30005 62.1 8.70005 73.8 17.3 82.2C19.1 71 28.6999 62.3 40.3999 62.3H57.8999C69.5999 62.3 79.3001 71 81.1001 82.2C89.7001 73.8 95.1001 62.1 95.1001 49.2ZM65.6001 39.4C65.6001 48.4 58.2 55.8 49.2 55.8C40.1 55.8 32.8 48.4 32.8 39.4C32.8 30.3 40.1 23 49.2 23C58.2 23 65.6001 30.3 65.6001 39.4ZM62.3 39.4C62.3 32.2 56.4 26.3 49.2 26.3C42 26.3 36.1001 32.2 36.1001 39.4C36.1001 46.6 42 52.5 49.2 52.5C56.4 52.5 62.3 46.6 62.3 39.4Z" fill="#454B60"/>
</svg>
