<svg width="20" height="24" viewBox="0 0 20 24" fill="none" xmlns="http://www.w3.org/2000/svg">
<path d="M15.8112 8.061V5.75786C15.8112 2.53346 13.1355 0 9.73 0C6.3245 0 3.64875 2.53346 3.64875 5.75786V8.061C1.58112 8.061 0 9.55804 0 11.5157V19.5767C0 21.5344 1.58112 23.0314 3.64875 23.0314H15.8112C17.8789 23.0314 19.46 21.5344 19.46 19.5767V11.5157C19.46 9.55804 17.8789 8.061 15.8112 8.061ZM6.08125 5.75786C6.08125 3.80018 7.66237 2.30314 9.73 2.30314C11.7976 2.30314 13.3787 3.80018 13.3787 5.75786V8.061H6.08125V5.75786ZM10.9462 17.2736C10.9462 17.9645 10.4597 18.4251 9.73 18.4251C9.00025 18.4251 8.51375 17.9645 8.51375 17.2736V13.8189C8.51375 13.1279 9.00025 12.6673 9.73 12.6673C10.4597 12.6673 10.9462 13.1279 10.9462 13.8189V17.2736Z" fill="#9A9A9A"/>
</svg>
