<svg width="16" height="16" viewBox="0 0 16 16" fill="none" xmlns="http://www.w3.org/2000/svg">
<path fill-rule="evenodd" clip-rule="evenodd" d="M13.2167 8.66667V12.9833C13.2167 14.1499 12.2833 15.0249 11.175 15.0249H2.54167C1.43333 15.0249 0.5 14.1499 0.5 12.9833V4.34991C0.5 3.24158 1.43333 2.30825 2.54167 2.30825H6.85835C6.97501 2.30825 7.09166 2.425 7.09166 2.54167C7.09166 2.65833 6.97501 2.77494 6.85835 2.77494H2.54167C1.66667 2.77494 0.96666 3.47491 0.96666 4.34991V12.9833C0.96666 13.8583 1.66667 14.5582 2.54167 14.5582H11.175C12.05 14.5582 12.75 13.8583 12.75 12.9833V8.66667C12.75 8.55 12.8667 8.43325 12.9833 8.43325C13.1 8.43325 13.2167 8.55 13.2167 8.66667ZM14.7333 3.53331L13.5083 4.75822L7.5 10.7666C7.46111 10.8055 7.40278 10.825 7.32501 10.825L4.52501 11.4083C4.52501 11.4083 4.50555 11.4083 4.46666 11.4083C4.23333 11.4083 4.11667 11.2333 4.11667 11L4.70001 8.19997C4.70001 8.12219 4.7389 8.06383 4.81668 8.02494L11.4083 1.43325L11.9917 0.791667C12.225 0.616667 12.4583 0.5 12.75 0.5C12.9833 0.5 13.275 0.616667 13.45 0.791667L14.7333 2.07497C15.1417 2.4833 15.1417 3.12497 14.7333 3.53331ZM12.75 4.875L10.65 2.83333L5.10835 8.31661L4.64165 10.9416L7.20833 10.4167L12.75 4.875ZM14.4417 2.36664L13.1583 1.08333C13.0417 0.966667 12.9056 0.908305 12.75 0.908305C12.5944 0.908305 12.4583 0.966667 12.3417 1.08333L11 2.48328L13.1 4.52494L14.4417 3.18325C14.675 2.94991 14.675 2.59997 14.4417 2.36664Z" fill="white"/>
</svg>
