<svg width="25" height="25" viewBox="0 0 25 25" fill="none" xmlns="http://www.w3.org/2000/svg">
<path d="M11.5568 12.4281C14.0278 12.4281 16.0309 10.425 16.0309 7.95406C16.0309 5.48309 14.0278 3.47998 11.5568 3.47998C9.08588 3.47998 7.08276 5.48309 7.08276 7.95406C7.08276 10.425 9.08588 12.4281 11.5568 12.4281Z" fill="#9A9A9A"/>
<path fill-rule="evenodd" clip-rule="evenodd" d="M4.45998 18.6508C4.45879 18.3363 4.52913 18.0256 4.6657 17.7423C5.09425 16.8852 6.30278 16.4309 7.30559 16.2252C8.02883 16.0709 8.76205 15.9678 9.49979 15.9166C10.8657 15.7967 12.2395 15.7967 13.6053 15.9166C14.343 15.9683 15.0762 16.0715 15.7995 16.2252C16.8024 16.4309 18.0109 16.8423 18.4394 17.7423C18.7141 18.3199 18.7141 18.9904 18.4394 19.5679C18.0109 20.4679 16.8024 20.8793 15.7995 21.0764C15.0772 21.2372 14.3437 21.3432 13.6053 21.3936C12.4936 21.4878 11.3767 21.505 10.2626 21.445C10.0055 21.445 9.75693 21.445 9.49979 21.3936C8.76422 21.3438 8.03355 21.2378 7.31416 21.0764C6.30278 20.8793 5.10282 20.4679 4.6657 19.5679C4.52983 19.2813 4.45956 18.968 4.45998 18.6508Z" fill="#9A9A9A"/>
</svg>
